<?xml version="1.0" encoding="UTF-8"?>
<!-- Generated by Pixelmator Pro 2.4.7 -->
<svg width="456" height="466" viewBox="0 0 456 466" xmlns="http://www.w3.org/2000/svg" xmlns:xlink="http://www.w3.org/1999/xlink">
    <g id="dework-logo-1">
        <linearGradient id="linearGradient1" x1="456" y1="233" x2="34" y2="233" gradientUnits="userSpaceOnUse">
            <stop offset="1e-05" stop-color="#8570e4" stop-opacity="1"/>
            <stop offset="1" stop-color="#fa4990" stop-opacity="1"/>
        </linearGradient>
        <path id="Path" fill="url(#linearGradient1)" fill-rule="evenodd" stroke="none" d="M 54.244598 69.373108 L 54.3512 69.215302 C 55.6534 67.291992 56.959999 65.550903 58.2911 64 C 60.933201 60.921692 63.6717 58.592712 66.663399 57.075897 C 69.362701 55.707306 72.268204 55 75.495003 55 L 222.998993 55 L 222.998993 0 L 157.996994 0 C 148.600006 0 137.091995 1.620728 125.183998 4.726074 C 90.852997 13.678497 53.189499 34.969696 53.148399 65.338104 L 53.148399 65.453705 C 53.150501 66.608093 53.206902 67.775696 53.32 68.956207 L 53.328701 69.046204 C 53.373001 69.496582 53.4254 69.948914 53.486198 70.403107 L 53.499298 70.5 L 53.552502 70.418213 C 53.708 70.179504 53.863499 69.94339 54.0191 69.709808 C 54.094299 69.596985 54.169399 69.484711 54.244598 69.373108 Z M 223 55 C 246.375 55 269.522003 59.604095 291.118011 68.549408 C 312.713989 77.494995 332.335999 90.606018 348.86499 107.13501 C 365.394012 123.664001 378.505005 143.286011 387.450989 164.882019 C 396.395996 186.477997 401 209.625 401 233 C 401 256.375 396.395996 279.522003 387.450989 301.118011 C 378.505005 322.713989 365.394012 342.335999 348.86499 358.86499 C 332.335999 375.394012 312.713989 388.505005 291.118011 397.450989 C 269.522003 406.395996 246.375 411 223 411 L 223 466 C 253.598007 466 283.895996 459.972992 312.165009 448.264008 C 340.43399 436.554993 366.119995 419.391998 387.756012 397.756012 C 409.391998 376.119995 426.554993 350.43399 438.264008 322.165009 C 449.972992 293.895996 456 263.597992 456 233 C 456 202.401978 449.972992 172.104004 438.264008 143.835022 C 426.554993 115.56601 409.391998 89.880005 387.756012 68.24411 C 366.119995 46.608093 340.43399 29.445404 312.165009 17.736084 C 283.895996 6.026703 253.598007 0 223 0 L 223 55 Z M 215 163 C 224.192993 163 233.294998 164.811005 241.787994 168.328003 C 250.281006 171.846008 257.997009 177.002014 264.497009 183.502991 C 270.997986 190.002991 276.153992 197.718994 279.671997 206.212006 C 283.188995 214.705002 285 223.807007 285 233 C 285 242.192993 283.188995 251.294998 279.671997 259.787994 C 276.153992 268.281006 270.997986 275.997009 264.497009 282.497009 C 257.997009 288.997986 250.281006 294.153992 241.787994 297.671997 C 233.294998 301.188995 224.192993 303 215 303 L 68 303 L 68 358 L 215 358 C 231.414993 358 247.669998 354.766998 262.834991 348.484985 C 278.001007 342.203003 291.781006 332.996002 303.388 321.388 C 314.996002 309.781006 324.203003 296.001007 330.484985 280.834991 C 336.766998 265.670013 340 249.414993 340 233 C 340 216.585007 336.766998 200.330017 330.484985 185.164978 C 324.203003 169.998993 314.996002 156.218994 303.388 144.612 C 291.781006 133.003998 278.001007 123.796997 262.834991 117.515015 C 247.669998 111.233002 231.414993 108 215 108 L 68 108 L 68 163 L 215 163 Z M 54.707298 411.161987 C 65.082397 445.710999 124.748001 466 157.996994 466 L 222.998993 466 L 222.998993 411 L 75.495003 411 C 68.014603 411 62.261002 407.199005 56.799198 400.17099 C 55.6912 398.744995 54.5952 397.186005 53.499298 395.5 C 53.498901 395.502991 53.498501 395.505005 53.498199 395.507996 C 52.749298 401.005005 53.2258 406.229004 54.707298 411.161987 Z"/>
        <linearGradient id="linearGradient2" x1="456" y1="233" x2="53" y2="233" gradientUnits="userSpaceOnUse">
            <stop offset="0.546875" stop-color="#000000" stop-opacity="0"/>
            <stop offset="0.958044" stop-color="#000000" stop-opacity="0.5"/>
        </linearGradient>
        <path id="path1" fill="url(#linearGradient2)" fill-rule="evenodd" stroke="none" d="M 54.244598 69.373108 L 54.3512 69.215302 C 55.6534 67.291992 56.959999 65.550903 58.2911 64 C 60.933201 60.921692 63.6717 58.592712 66.663399 57.075897 C 69.362701 55.707306 72.268204 55 75.495003 55 L 222.998993 55 L 222.998993 0 L 157.996994 0 C 148.600006 0 137.091995 1.620728 125.183998 4.726074 C 90.852997 13.678497 53.189499 34.969696 53.148399 65.338104 L 53.148399 65.453705 C 53.150501 66.608093 53.206902 67.775696 53.32 68.956207 L 53.328701 69.046204 C 53.373001 69.496582 53.4254 69.948914 53.486198 70.403107 L 53.499298 70.5 L 53.552502 70.418213 C 53.708 70.179504 53.863499 69.94339 54.0191 69.709808 C 54.094299 69.596985 54.169399 69.484711 54.244598 69.373108 Z M 223 55 C 246.375 55 269.522003 59.604095 291.118011 68.549408 C 312.713989 77.494995 332.335999 90.606018 348.86499 107.13501 C 365.394012 123.664001 378.505005 143.286011 387.450989 164.882019 C 396.395996 186.477997 401 209.625 401 233 C 401 256.375 396.395996 279.522003 387.450989 301.118011 C 378.505005 322.713989 365.394012 342.335999 348.86499 358.86499 C 332.335999 375.394012 312.713989 388.505005 291.118011 397.450989 C 269.522003 406.395996 246.375 411 223 411 L 223 466 C 253.598007 466 283.895996 459.972992 312.165009 448.264008 C 340.43399 436.554993 366.119995 419.391998 387.756012 397.756012 C 409.391998 376.119995 426.554993 350.43399 438.264008 322.165009 C 449.972992 293.895996 456 263.597992 456 233 C 456 202.401978 449.972992 172.104004 438.264008 143.835022 C 426.554993 115.56601 409.391998 89.880005 387.756012 68.24411 C 366.119995 46.608093 340.43399 29.445404 312.165009 17.736084 C 283.895996 6.026703 253.598007 0 223 0 L 223 55 Z M 215 163 C 224.192993 163 233.294998 164.811005 241.787994 168.328003 C 250.281006 171.846008 257.997009 177.002014 264.497009 183.502991 C 270.997986 190.002991 276.153992 197.718994 279.671997 206.212006 C 283.188995 214.705002 285 223.807007 285 233 C 285 242.192993 283.188995 251.294998 279.671997 259.787994 C 276.153992 268.281006 270.997986 275.997009 264.497009 282.497009 C 257.997009 288.997986 250.281006 294.153992 241.787994 297.671997 C 233.294998 301.188995 224.192993 303 215 303 L 68 303 L 68 358 L 215 358 C 231.414993 358 247.669998 354.766998 262.834991 348.484985 C 278.001007 342.203003 291.781006 332.996002 303.388 321.388 C 314.996002 309.781006 324.203003 296.001007 330.484985 280.834991 C 336.766998 265.670013 340 249.414993 340 233 C 340 216.585007 336.766998 200.330017 330.484985 185.164978 C 324.203003 169.998993 314.996002 156.218994 303.388 144.612 C 291.781006 133.003998 278.001007 123.796997 262.834991 117.515015 C 247.669998 111.233002 231.414993 108 215 108 L 68 108 L 68 163 L 215 163 Z M 54.707298 411.161987 C 65.082397 445.710999 124.748001 466 157.996994 466 L 222.998993 466 L 222.998993 411 L 75.495003 411 C 68.014603 411 62.261002 407.199005 56.799198 400.17099 C 55.6912 398.744995 54.5952 397.186005 53.499298 395.5 C 53.498901 395.502991 53.498501 395.505005 53.498199 395.507996 C 52.749298 401.005005 53.2258 406.229004 54.707298 411.161987 Z"/>
        <path id="path2" fill="#fa4990" fill-rule="evenodd" stroke="none" d="M 53.5 70.599609 C 53.751499 75.74231 56.514099 89.167206 60.4702 94.261292 L 182.985992 225.643997 C 184.858994 227.651993 185.746002 230.227005 185.667999 232.770996 C 185.727005 235.289993 184.839005 237.834 182.983994 239.822998 L 61.0863 370.542999 L 61.2771 370.71701 C 57.5112 374.841003 53.7728 389.821991 53.5 395.399994 C 50.5411 455.899994 154 465.899994 154 465.899994 C 134.996994 465.735992 120.233002 465.841003 108.372002 465.924988 C 84.0299 466.097992 71.905098 466.183014 60.423901 463.684998 C 42.555698 459.362 26.754499 448.942993 15.7423 434.222992 C 4.73008 419.502991 -0.80372 401.403015 0.09438 383.040985 C 0.981128 364.908997 8.0847 347.644012 20.1985 334.141998 L 20 333.957001 L 114.393997 232.731995 L 20.739 132.299988 L 20.6621 132.369995 C 8.26598 118.794006 0.99238 101.320984 0.09438 82.958984 C -0.80372 64.59729 4.73008 46.497314 15.7423 31.777008 C 26.754499 17.05661 42.555698 6.637604 60.423901 2.31488 C 71.906097 -0.183746 84.032097 -0.097687 108.377998 0.075043 C 120.238998 0.15918 135 0.263916 154 0.100372 C 154 0.100372 50.5411 10.099609 53.5 70.599609 Z"/>
        <linearGradient id="linearGradient3" x1="92.8364" y1="-0" x2="92.8364" y2="466" gradientUnits="userSpaceOnUse">
            <stop offset="1e-05" stop-color="#000000" stop-opacity="0.2"/>
            <stop offset="0.499239" stop-color="#000000" stop-opacity="0"/>
            <stop offset="1" stop-color="#000000" stop-opacity="0.2"/>
        </linearGradient>
        <path id="path3" fill="url(#linearGradient3)" fill-rule="evenodd" stroke="none" d="M 53.5 70.599609 C 53.751499 75.74231 56.514099 89.167206 60.4702 94.261292 L 182.985992 225.643997 C 184.858994 227.651993 185.746002 230.227005 185.667999 232.770996 C 185.727005 235.289993 184.839005 237.834 182.983994 239.822998 L 61.0863 370.542999 L 61.2771 370.71701 C 57.5112 374.841003 53.7728 389.821991 53.5 395.399994 C 50.5411 455.899994 154 465.899994 154 465.899994 C 134.996994 465.735992 120.233002 465.841003 108.372002 465.924988 C 84.0299 466.097992 71.905098 466.183014 60.423901 463.684998 C 42.555698 459.362 26.754499 448.942993 15.7423 434.222992 C 4.73008 419.502991 -0.80372 401.403015 0.09438 383.040985 C 0.981128 364.908997 8.0847 347.644012 20.1985 334.141998 L 20 333.957001 L 114.393997 232.731995 L 20.739 132.299988 L 20.6621 132.369995 C 8.26598 118.794006 0.99238 101.320984 0.09438 82.958984 C -0.80372 64.59729 4.73008 46.497314 15.7423 31.777008 C 26.754499 17.05661 42.555698 6.637604 60.423901 2.31488 C 71.906097 -0.183746 84.032097 -0.097687 108.377998 0.075043 C 120.238998 0.15918 135 0.263916 154 0.100372 C 154 0.100372 50.5411 10.099609 53.5 70.599609 Z"/>
    </g>
</svg>
